<svg width="130" height="40" viewBox="0 0 130 40" fill="none" xmlns="http://www.w3.org/2000/svg">
<path d="M25.7093 30.5831C25.2721 30.8746 24.677 31.2025 23.9241 31.5669C23.1711 31.9312 22.2845 32.247 21.2644 32.5142C20.2686 32.7571 19.1756 32.8665 17.9854 32.8422C15.9208 32.8179 14.0749 32.4535 12.4475 31.749C10.8202 31.0446 9.42355 30.0851 8.25768 28.8705C7.11609 27.6316 6.24169 26.2227 5.63447 24.6438C5.02724 23.0648 4.72363 21.3766 4.72363 19.579C4.72363 17.6114 5.03939 15.8017 5.6709 14.1499C6.3267 12.4737 7.23754 11.0284 8.40341 9.81382C9.56928 8.57496 10.9416 7.61544 12.5204 6.93528C14.1235 6.25512 15.8723 5.91504 17.7668 5.91504C19.3456 5.91504 20.7786 6.13366 22.0659 6.57091C23.3533 6.98386 24.4584 7.46969 25.3814 8.0284L23.9605 11.3442C23.2318 10.8584 22.3453 10.3968 21.3008 9.95957C20.2564 9.52233 19.1148 9.3037 17.8761 9.3037C16.5888 9.3037 15.3743 9.57091 14.2328 10.1053C13.0912 10.6154 12.0832 11.332 11.2088 12.2551C10.3344 13.1539 9.64215 14.2227 9.13208 15.4616C8.6463 16.6762 8.40341 17.9879 8.40341 19.3968C8.40341 21.2916 8.79203 23.0041 9.56928 24.5345C10.3708 26.0405 11.4881 27.2308 12.9212 28.1053C14.3785 28.9798 16.0787 29.4171 18.0218 29.4171C19.382 29.4171 20.5722 29.2227 21.5923 28.8341C22.6367 28.4211 23.499 27.9474 24.1791 27.413L25.7093 30.5831Z" fill="white"/>
<path d="M30.8222 17.4656H34.2105V32.5507H30.8222V17.4656ZM30.5671 12.0365C30.5671 11.4778 30.7736 11.0284 31.1865 10.6883C31.6237 10.3239 32.0973 10.1418 32.6074 10.1418C33.1175 10.1418 33.579 10.3239 33.9919 10.6883C34.4048 11.0284 34.6112 11.4778 34.6112 12.0365C34.6112 12.5952 34.4048 13.0567 33.9919 13.4211C33.579 13.7612 33.1175 13.9312 32.6074 13.9312C32.0973 13.9312 31.6237 13.7612 31.1865 13.4211C30.7736 13.0567 30.5671 12.5952 30.5671 12.0365Z" fill="white"/>
<path d="M43.1688 17.4656L43.3874 20.3806C43.8975 19.3118 44.6869 18.4616 45.7556 17.83C46.8243 17.1984 48.0631 16.8826 49.4718 16.8826C50.8806 16.8826 52.0343 17.3077 52.933 18.158C53.856 18.9839 54.3418 20.0648 54.3903 21.4009V32.5507H50.9656V22.5669C50.917 21.7652 50.662 21.1094 50.2005 20.5992C49.7633 20.0891 49.071 19.8219 48.1238 19.7976C46.8122 19.7976 45.707 20.332 44.8083 21.4009C43.9339 22.4454 43.4967 23.8057 43.4967 25.4818V32.5507H40.1084V17.4656H43.1688Z" fill="white"/>
<path d="M67.2417 32.915C65.5414 32.915 64.0598 32.575 62.7968 31.8948C61.558 31.1903 60.5986 30.2308 59.9185 29.0163C59.2627 27.8017 58.9348 26.4292 58.9348 24.8988C58.9348 23.4171 59.2992 22.0689 60.0278 20.8543C60.7808 19.6154 61.7888 18.6438 63.0518 17.9393C64.3391 17.2106 65.76 16.8462 67.3145 16.8462C69.3062 16.8462 70.9579 17.4292 72.2695 18.5952C73.5811 19.7612 74.4798 21.3644 74.9655 23.4049L63.0154 27.5952C63.4283 28.3482 64.0112 28.9434 64.7642 29.3806C65.5171 29.7936 66.3672 30.0001 67.3145 30.0001C67.9946 30.0001 68.6383 29.8786 69.2455 29.6357C69.8527 29.3928 70.4357 29.077 70.9943 28.6883L72.5609 31.2025C71.7837 31.7126 70.9214 32.1256 69.9742 32.4414C69.0512 32.7571 68.1404 32.915 67.2417 32.915ZM62.2867 24.7167C62.2624 25.0082 62.2746 25.2875 62.3231 25.5547L71.1036 22.3118C70.7635 21.5831 70.2656 20.9393 69.6098 20.3806C68.9783 19.8219 68.1282 19.5426 67.0595 19.5426C65.675 19.5426 64.5334 20.0284 63.6347 21.0001C62.736 21.9717 62.2867 23.2106 62.2867 24.7167Z" fill="white"/>
<path d="M82.2351 17.4656L82.4538 20.3442C83.0367 19.2511 83.8261 18.4009 84.8219 17.7936C85.8421 17.162 87.0079 16.8462 88.3195 16.8462C89.5583 16.8462 90.5906 17.1377 91.4164 17.7207C92.2665 18.3037 92.7887 19.0932 92.983 20.0891C93.5902 19.0689 94.3796 18.2794 95.3512 17.7207C96.347 17.1377 97.4036 16.8462 98.5209 16.8462C99.9782 16.8462 101.132 17.2713 101.982 18.1215C102.856 18.9717 103.318 20.0527 103.367 21.3644V32.5507H99.9782V22.6397C99.9297 21.8624 99.7232 21.2187 99.3589 20.7086C99.0188 20.1741 98.4237 19.8826 97.5736 19.8341C96.6749 19.8341 95.8855 20.1013 95.2055 20.6357C94.5254 21.1458 93.991 21.826 93.6024 22.6762C93.2138 23.5264 93.0073 24.4252 92.983 25.3725V32.5507H89.5583V22.6397C89.534 21.8624 89.3275 21.2187 88.9389 20.7086C88.5746 20.1741 87.9552 19.8826 87.0808 19.8341C86.2064 19.8341 85.4291 20.1013 84.7491 20.6357C84.069 21.1458 83.5346 21.826 83.146 22.6762C82.7574 23.5264 82.563 24.4373 82.563 25.409V32.5507H79.1747V17.4656H82.2351Z" fill="white"/>
<path d="M115.542 32.915C114.109 32.915 112.81 32.6114 111.644 32.0041C110.502 31.3968 109.592 30.5102 108.912 29.3442C108.256 28.1539 107.928 26.7086 107.928 25.0082C107.928 23.3078 108.268 21.8503 108.948 20.6357C109.652 19.4211 110.587 18.4859 111.753 17.83C112.944 17.1741 114.243 16.8462 115.652 16.8462C117.012 16.8462 118.166 17.1377 119.113 17.7207C120.06 18.3037 120.801 19.0082 121.335 19.8341L121.59 17.4656H124.724V32.5507H121.335V30.0729C121.044 30.4616 120.619 30.8746 120.06 31.3118C119.526 31.749 118.87 32.1256 118.093 32.4414C117.34 32.7571 116.49 32.915 115.542 32.915ZM116.453 30.1094C117.692 30.1094 118.749 29.7693 119.623 29.0891C120.497 28.3847 121.068 27.4373 121.335 26.247V23.2592C121.044 22.2146 120.437 21.3523 119.514 20.6721C118.591 19.992 117.534 19.6519 116.344 19.6519C115.421 19.6519 114.583 19.8705 113.83 20.3077C113.077 20.745 112.47 21.3523 112.008 22.1296C111.571 22.9069 111.353 23.8057 111.353 24.826C111.353 25.8219 111.583 26.7207 112.045 27.5223C112.506 28.2997 113.126 28.9312 113.903 29.4171C114.68 29.8786 115.53 30.1094 116.453 30.1094Z" fill="white"/>
<path d="M25.2496 20.0828L15.7759 27.2427V19.9123V12.582L25.2496 20.0828Z" fill="#40467C"/>
</svg>
